<?xml version="1.0" encoding="UTF-8" standalone="no"?>
<!DOCTYPE svg PUBLIC "-//W3C//DTD SVG 1.1//EN"
 "http://www.w3.org/Graphics/SVG/1.1/DTD/svg11.dtd">
<!-- Generated by graphviz version 5.0.0 (20220707.1540)
 -->
<!-- Title: dependencies Pages: 1 -->
<svg width="501pt" height="247pt"
 viewBox="0.00 0.00 501.00 246.80" xmlns="http://www.w3.org/2000/svg" xmlns:xlink="http://www.w3.org/1999/xlink">
<g id="graph0" class="graph" transform="scale(1 1) rotate(0) translate(4 242.8)">
<title>dependencies</title>
<polygon fill="white" stroke="transparent" points="-4,4 -4,-242.8 497,-242.8 497,4 -4,4"/>
<text text-anchor="middle" x="246.5" y="-8.2" font-family="sans-serif" font-size="14.00">dependencies</text>
<g id="clust1" class="cluster">
<title>cluster_DashbordModule</title>
<polygon fill="none" stroke="black" stroke-dasharray="1,5" points="8,-32.8 8,-230.8 485,-230.8 485,-32.8 8,-32.8"/>
</g>
<g id="clust2" class="cluster">
<title>cluster_DashbordModule_declarations</title>
<polygon fill="none" stroke="black" points="20,-40.8 20,-92.8 474,-92.8 474,-40.8 20,-40.8"/>
</g>
<g id="clust6" class="cluster">
<title>cluster_DashbordModule_exports</title>
<polygon fill="none" stroke="black" points="16,-170.8 16,-222.8 477,-222.8 477,-170.8 16,-170.8"/>
</g>
<!-- BarDashboardOlympicComponent -->
<g id="node1" class="node">
<title>BarDashboardOlympicComponent</title>
<polygon fill="#ffffb3" stroke="black" points="465.69,-84.8 254.31,-84.8 254.31,-48.8 465.69,-48.8 465.69,-84.8"/>
<text text-anchor="middle" x="360" y="-62.6" font-family="Times,serif" font-size="14.00">BarDashboardOlympicComponent</text>
</g>
<!-- DashbordModule -->
<g id="node3" class="node">
<title>DashbordModule</title>
<polygon fill="#8dd3c7" stroke="black" points="189.99,-149.8 186.99,-153.8 165.99,-153.8 162.99,-149.8 76.01,-149.8 76.01,-113.8 189.99,-113.8 189.99,-149.8"/>
<text text-anchor="middle" x="133" y="-127.6" font-family="Times,serif" font-size="14.00">DashbordModule</text>
</g>
<!-- BarDashboardOlympicComponent&#45;&gt;DashbordModule -->
<g id="edge1" class="edge">
<title>BarDashboardOlympicComponent&#45;&gt;DashbordModule</title>
<path fill="none" stroke="black" d="M395.28,-84.82C395.28,-102.17 395.28,-125.8 395.28,-125.8 395.28,-125.8 200.23,-125.8 200.23,-125.8"/>
<polygon fill="black" stroke="black" points="200.23,-122.3 190.23,-125.8 200.23,-129.3 200.23,-122.3"/>
</g>
<!-- PieDashboardOlympicComponent -->
<g id="node2" class="node">
<title>PieDashboardOlympicComponent</title>
<polygon fill="#ffffb3" stroke="black" points="236.36,-84.8 27.64,-84.8 27.64,-48.8 236.36,-48.8 236.36,-84.8"/>
<text text-anchor="middle" x="132" y="-62.6" font-family="Times,serif" font-size="14.00">PieDashboardOlympicComponent</text>
</g>
<!-- PieDashboardOlympicComponent&#45;&gt;DashbordModule -->
<g id="edge2" class="edge">
<title>PieDashboardOlympicComponent&#45;&gt;DashbordModule</title>
<path fill="none" stroke="black" d="M133,-84.91C133,-84.91 133,-103.79 133,-103.79"/>
<polygon fill="black" stroke="black" points="129.5,-103.79 133,-113.79 136.5,-103.79 129.5,-103.79"/>
</g>
<!-- BarDashboardOlympicComponent  -->
<g id="node4" class="node">
<title>BarDashboardOlympicComponent </title>
<polygon fill="#fb8072" stroke="black" points="469.19,-214.8 254.81,-214.8 254.81,-178.8 469.19,-178.8 469.19,-214.8"/>
<text text-anchor="middle" x="362" y="-192.6" font-family="Times,serif" font-size="14.00">BarDashboardOlympicComponent </text>
</g>
<!-- DashbordModule&#45;&gt;BarDashboardOlympicComponent  -->
<g id="edge3" class="edge">
<title>DashbordModule&#45;&gt;BarDashboardOlympicComponent </title>
<path fill="none" stroke="black" stroke-dasharray="5,2" d="M190.08,-137.8C246.66,-137.8 324.97,-137.8 324.97,-137.8 324.97,-137.8 324.97,-168.78 324.97,-168.78"/>
<polygon fill="black" stroke="black" points="321.47,-168.78 324.97,-178.78 328.47,-168.78 321.47,-168.78"/>
</g>
<!-- PieDashboardOlympicComponent  -->
<g id="node5" class="node">
<title>PieDashboardOlympicComponent </title>
<polygon fill="#fb8072" stroke="black" points="236.36,-214.8 23.64,-214.8 23.64,-178.8 236.36,-178.8 236.36,-214.8"/>
<text text-anchor="middle" x="130" y="-192.6" font-family="Times,serif" font-size="14.00">PieDashboardOlympicComponent </text>
</g>
<!-- DashbordModule&#45;&gt;PieDashboardOlympicComponent  -->
<g id="edge4" class="edge">
<title>DashbordModule&#45;&gt;PieDashboardOlympicComponent </title>
<path fill="none" stroke="black" stroke-dasharray="5,2" d="M133,-149.91C133,-149.91 133,-168.79 133,-168.79"/>
<polygon fill="black" stroke="black" points="129.5,-168.79 133,-178.79 136.5,-168.79 129.5,-168.79"/>
</g>
</g>
</svg>
