<?xml version="1.0" encoding="UTF-8" standalone="no"?>
<!DOCTYPE svg PUBLIC "-//W3C//DTD SVG 1.1//EN"
 "http://www.w3.org/Graphics/SVG/1.1/DTD/svg11.dtd">
<!-- Generated by graphviz version 5.0.0 (20220707.1540)
 -->
<!-- Title: dependencies Pages: 1 -->
<svg width="969pt" height="247pt"
 viewBox="0.00 0.00 969.00 246.80" xmlns="http://www.w3.org/2000/svg" xmlns:xlink="http://www.w3.org/1999/xlink">
<g id="graph0" class="graph" transform="scale(1 1) rotate(0) translate(4 242.8)">
<title>dependencies</title>
<polygon fill="white" stroke="transparent" points="-4,4 -4,-242.8 965,-242.8 965,4 -4,4"/>
<text text-anchor="middle" x="480.5" y="-8.2" font-family="sans-serif" font-size="14.00">dependencies</text>
<g id="clust1" class="cluster">
<title>cluster_AppModule</title>
<polygon fill="none" stroke="black" stroke-dasharray="1,5" points="8,-32.8 8,-230.8 953,-230.8 953,-32.8 8,-32.8"/>
</g>
<g id="clust9" class="cluster">
<title>cluster_AppModule_bootstrap</title>
<polygon fill="none" stroke="black" points="420,-170.8 420,-222.8 544,-222.8 544,-170.8 420,-170.8"/>
</g>
<g id="clust2" class="cluster">
<title>cluster_AppModule_declarations</title>
<polygon fill="none" stroke="black" points="405,-40.8 405,-92.8 945,-92.8 945,-40.8 405,-40.8"/>
</g>
<g id="clust7" class="cluster">
<title>cluster_AppModule_imports</title>
<polygon fill="none" stroke="black" points="16,-40.8 16,-92.8 397,-92.8 397,-40.8 16,-40.8"/>
</g>
<!-- AppComponent -->
<g id="node1" class="node">
<title>AppComponent</title>
<polygon fill="#ffffb3" stroke="black" points="936.94,-84.8 831.06,-84.8 831.06,-48.8 936.94,-48.8 936.94,-84.8"/>
<text text-anchor="middle" x="884" y="-62.6" font-family="Times,serif" font-size="14.00">AppComponent</text>
</g>
<!-- AppModule -->
<g id="node5" class="node">
<title>AppModule</title>
<polygon fill="#8dd3c7" stroke="black" points="523.66,-149.8 520.66,-153.8 499.66,-153.8 496.66,-149.8 440.34,-149.8 440.34,-113.8 523.66,-113.8 523.66,-149.8"/>
<text text-anchor="middle" x="482" y="-127.6" font-family="Times,serif" font-size="14.00">AppModule</text>
</g>
<!-- AppComponent&#45;&gt;AppModule -->
<g id="edge1" class="edge">
<title>AppComponent&#45;&gt;AppModule</title>
<path fill="none" stroke="black" d="M884,-85.09C884,-107.01 884,-140.8 884,-140.8 884,-140.8 533.88,-140.8 533.88,-140.8"/>
<polygon fill="black" stroke="black" points="533.88,-137.3 523.88,-140.8 533.88,-144.3 533.88,-137.3"/>
</g>
<!-- ErrorComponent -->
<g id="node2" class="node">
<title>ErrorComponent</title>
<polygon fill="#ffffb3" stroke="black" points="813.37,-84.8 702.63,-84.8 702.63,-48.8 813.37,-48.8 813.37,-84.8"/>
<text text-anchor="middle" x="758" y="-62.6" font-family="Times,serif" font-size="14.00">ErrorComponent</text>
</g>
<!-- ErrorComponent&#45;&gt;AppModule -->
<g id="edge2" class="edge">
<title>ErrorComponent&#45;&gt;AppModule</title>
<path fill="none" stroke="black" d="M758,-84.91C758,-104.14 758,-131.8 758,-131.8 758,-131.8 533.92,-131.8 533.92,-131.8"/>
<polygon fill="black" stroke="black" points="533.92,-128.3 523.92,-131.8 533.92,-135.3 533.92,-128.3"/>
</g>
<!-- HomeComponent -->
<g id="node3" class="node">
<title>HomeComponent</title>
<polygon fill="#ffffb3" stroke="black" points="684.55,-84.8 569.45,-84.8 569.45,-48.8 684.55,-48.8 684.55,-84.8"/>
<text text-anchor="middle" x="627" y="-62.6" font-family="Times,serif" font-size="14.00">HomeComponent</text>
</g>
<!-- HomeComponent&#45;&gt;AppModule -->
<g id="edge3" class="edge">
<title>HomeComponent&#45;&gt;AppModule</title>
<path fill="none" stroke="black" d="M627,-84.83C627,-101.2 627,-122.8 627,-122.8 627,-122.8 533.94,-122.8 533.94,-122.8"/>
<polygon fill="black" stroke="black" points="533.94,-119.3 523.94,-122.8 533.94,-126.3 533.94,-119.3"/>
</g>
<!-- NotFoundComponent -->
<g id="node4" class="node">
<title>NotFoundComponent</title>
<polygon fill="#ffffb3" stroke="black" points="551.12,-84.8 412.88,-84.8 412.88,-48.8 551.12,-48.8 551.12,-84.8"/>
<text text-anchor="middle" x="482" y="-62.6" font-family="Times,serif" font-size="14.00">NotFoundComponent</text>
</g>
<!-- NotFoundComponent&#45;&gt;AppModule -->
<g id="edge4" class="edge">
<title>NotFoundComponent&#45;&gt;AppModule</title>
<path fill="none" stroke="black" d="M482,-84.91C482,-84.91 482,-103.79 482,-103.79"/>
<polygon fill="black" stroke="black" points="478.5,-103.79 482,-113.79 485.5,-103.79 478.5,-103.79"/>
</g>
<!-- AppComponent  -->
<g id="node9" class="node">
<title>AppComponent </title>
<polygon fill="#80b1d3" stroke="black" points="536.44,-214.8 427.56,-214.8 427.56,-178.8 536.44,-178.8 536.44,-214.8"/>
<text text-anchor="middle" x="482" y="-192.6" font-family="Times,serif" font-size="14.00">AppComponent </text>
</g>
<!-- AppModule&#45;&gt;AppComponent  -->
<g id="edge8" class="edge">
<title>AppModule&#45;&gt;AppComponent </title>
<path fill="none" stroke="black" stroke-dasharray="1,5" d="M482,-149.91C482,-149.91 482,-168.79 482,-168.79"/>
<polygon fill="black" stroke="black" points="478.5,-168.79 482,-178.79 485.5,-168.79 478.5,-168.79"/>
</g>
<!-- AppRoutingModule -->
<g id="node6" class="node">
<title>AppRoutingModule</title>
<polygon fill="#8dd3c7" stroke="black" points="389.28,-84.8 386.28,-88.8 365.28,-88.8 362.28,-84.8 260.72,-84.8 260.72,-48.8 389.28,-48.8 389.28,-84.8"/>
<text text-anchor="middle" x="325" y="-62.6" font-family="Times,serif" font-size="14.00">AppRoutingModule</text>
</g>
<!-- AppRoutingModule&#45;&gt;AppModule -->
<g id="edge5" class="edge">
<title>AppRoutingModule&#45;&gt;AppModule</title>
<path fill="none" stroke="black" d="M325,-84.83C325,-101.2 325,-122.8 325,-122.8 325,-122.8 429.93,-122.8 429.93,-122.8"/>
<polygon fill="black" stroke="black" points="429.93,-126.3 439.93,-122.8 429.93,-119.3 429.93,-126.3"/>
</g>
<!-- CoreModule -->
<g id="node7" class="node">
<title>CoreModule</title>
<polygon fill="#8dd3c7" stroke="black" points="242.27,-84.8 239.27,-88.8 218.27,-88.8 215.27,-84.8 155.73,-84.8 155.73,-48.8 242.27,-48.8 242.27,-84.8"/>
<text text-anchor="middle" x="199" y="-62.6" font-family="Times,serif" font-size="14.00">CoreModule</text>
</g>
<!-- CoreModule&#45;&gt;AppModule -->
<g id="edge6" class="edge">
<title>CoreModule&#45;&gt;AppModule</title>
<path fill="none" stroke="black" d="M199,-84.91C199,-104.14 199,-131.8 199,-131.8 199,-131.8 430.24,-131.8 430.24,-131.8"/>
<polygon fill="black" stroke="black" points="430.24,-135.3 440.24,-131.8 430.24,-128.3 430.24,-135.3"/>
</g>
<!-- DashbordModule -->
<g id="node8" class="node">
<title>DashbordModule</title>
<polygon fill="#8dd3c7" stroke="black" points="137.99,-84.8 134.99,-88.8 113.99,-88.8 110.99,-84.8 24.01,-84.8 24.01,-48.8 137.99,-48.8 137.99,-84.8"/>
<text text-anchor="middle" x="81" y="-62.6" font-family="Times,serif" font-size="14.00">DashbordModule</text>
</g>
<!-- DashbordModule&#45;&gt;AppModule -->
<g id="edge7" class="edge">
<title>DashbordModule&#45;&gt;AppModule</title>
<path fill="none" stroke="black" d="M81,-85.09C81,-107.01 81,-140.8 81,-140.8 81,-140.8 430.22,-140.8 430.22,-140.8"/>
<polygon fill="black" stroke="black" points="430.22,-144.3 440.22,-140.8 430.22,-137.3 430.22,-144.3"/>
</g>
</g>
</svg>
