<?xml version="1.0" encoding="UTF-8" standalone="no"?>
<!DOCTYPE svg PUBLIC "-//W3C//DTD SVG 1.1//EN"
 "http://www.w3.org/Graphics/SVG/1.1/DTD/svg11.dtd">
<!-- Generated by graphviz version 5.0.0 (20220707.1540)
 -->
<!-- Title: dependencies Pages: 1 -->
<svg width="1916pt" height="329pt"
 viewBox="0.00 0.00 1916.00 328.80" xmlns="http://www.w3.org/2000/svg" xmlns:xlink="http://www.w3.org/1999/xlink">
<g id="graph0" class="graph" transform="scale(1 1) rotate(0) translate(4 324.8)">
<title>dependencies</title>
<polygon fill="white" stroke="transparent" points="-4,4 -4,-324.8 1912,-324.8 1912,4 -4,4"/>
<text text-anchor="middle" x="954" y="-8.2" font-family="sans-serif" font-size="14.00">dependencies</text>
<g id="clust1" class="cluster">
<title>cluster_AppModule</title>
<polygon fill="none" stroke="black" stroke-dasharray="1,5" points="8,-108.8 8,-312.8 953,-312.8 953,-108.8 8,-108.8"/>
</g>
<g id="clust2" class="cluster">
<title>cluster_AppModule_declarations</title>
<polygon fill="none" stroke="black" points="16,-116.8 16,-168.8 556,-168.8 556,-116.8 16,-116.8"/>
</g>
<g id="clust7" class="cluster">
<title>cluster_AppModule_imports</title>
<polygon fill="none" stroke="black" points="564,-116.8 564,-168.8 945,-168.8 945,-116.8 564,-116.8"/>
</g>
<g id="clust9" class="cluster">
<title>cluster_AppModule_bootstrap</title>
<polygon fill="none" stroke="black" points="433,-252.8 433,-304.8 557,-304.8 557,-252.8 433,-252.8"/>
</g>
<g id="clust17" class="cluster">
<title>cluster_CoreModule</title>
<polygon fill="none" stroke="black" stroke-dasharray="1,5" points="496,-32.8 496,-100.8 734,-100.8 734,-32.8 496,-32.8"/>
</g>
<g id="clust22" class="cluster">
<title>cluster_CoreModule_providers</title>
<polygon fill="none" stroke="black" points="504,-40.8 504,-92.8 726,-92.8 726,-40.8 504,-40.8"/>
</g>
<g id="clust23" class="cluster">
<title>cluster_DashbordModule</title>
<polygon fill="none" stroke="black" stroke-dasharray="1,5" points="961,-176.8 961,-244.8 1900,-244.8 1900,-176.8 961,-176.8"/>
</g>
<g id="clust24" class="cluster">
<title>cluster_DashbordModule_declarations</title>
<polygon fill="none" stroke="black" points="1438,-184.8 1438,-236.8 1892,-236.8 1892,-184.8 1438,-184.8"/>
</g>
<g id="clust28" class="cluster">
<title>cluster_DashbordModule_exports</title>
<polygon fill="none" stroke="black" points="969,-184.8 969,-236.8 1430,-236.8 1430,-184.8 969,-184.8"/>
</g>
<!-- AppComponent -->
<g id="node1" class="node">
<title>AppComponent</title>
<polygon fill="#ffffb3" stroke="black" points="547.94,-160.8 442.06,-160.8 442.06,-124.8 547.94,-124.8 547.94,-160.8"/>
<text text-anchor="middle" x="495" y="-138.6" font-family="Times,serif" font-size="14.00">AppComponent</text>
</g>
<!-- AppModule -->
<g id="node5" class="node">
<title>AppModule</title>
<polygon fill="#8dd3c7" stroke="black" points="536.66,-228.8 533.66,-232.8 512.66,-232.8 509.66,-228.8 453.34,-228.8 453.34,-192.8 536.66,-192.8 536.66,-228.8"/>
<text text-anchor="middle" x="495" y="-206.6" font-family="Times,serif" font-size="14.00">AppModule</text>
</g>
<!-- AppComponent&#45;&gt;AppModule -->
<g id="edge1" class="edge">
<title>AppComponent&#45;&gt;AppModule</title>
<path fill="none" stroke="black" d="M495,-161.02C495,-161.02 495,-182.53 495,-182.53"/>
<polygon fill="black" stroke="black" points="491.5,-182.53 495,-192.53 498.5,-182.53 491.5,-182.53"/>
</g>
<!-- ErrorComponent -->
<g id="node2" class="node">
<title>ErrorComponent</title>
<polygon fill="#ffffb3" stroke="black" points="424.37,-160.8 313.63,-160.8 313.63,-124.8 424.37,-124.8 424.37,-160.8"/>
<text text-anchor="middle" x="369" y="-138.6" font-family="Times,serif" font-size="14.00">ErrorComponent</text>
</g>
<!-- ErrorComponent&#45;&gt;AppModule -->
<g id="edge2" class="edge">
<title>ErrorComponent&#45;&gt;AppModule</title>
<path fill="none" stroke="black" d="M369,-160.82C369,-178.17 369,-201.8 369,-201.8 369,-201.8 443.04,-201.8 443.04,-201.8"/>
<polygon fill="black" stroke="black" points="443.04,-205.3 453.04,-201.8 443.04,-198.3 443.04,-205.3"/>
</g>
<!-- HomeComponent -->
<g id="node3" class="node">
<title>HomeComponent</title>
<polygon fill="#ffffb3" stroke="black" points="295.55,-160.8 180.45,-160.8 180.45,-124.8 295.55,-124.8 295.55,-160.8"/>
<text text-anchor="middle" x="238" y="-138.6" font-family="Times,serif" font-size="14.00">HomeComponent</text>
</g>
<!-- HomeComponent&#45;&gt;AppModule -->
<g id="edge3" class="edge">
<title>HomeComponent&#45;&gt;AppModule</title>
<path fill="none" stroke="black" d="M238,-161.02C238,-181.17 238,-210.8 238,-210.8 238,-210.8 443.14,-210.8 443.14,-210.8"/>
<polygon fill="black" stroke="black" points="443.14,-214.3 453.14,-210.8 443.14,-207.3 443.14,-214.3"/>
</g>
<!-- NotFoundComponent -->
<g id="node4" class="node">
<title>NotFoundComponent</title>
<polygon fill="#ffffb3" stroke="black" points="162.12,-160.8 23.88,-160.8 23.88,-124.8 162.12,-124.8 162.12,-160.8"/>
<text text-anchor="middle" x="93" y="-138.6" font-family="Times,serif" font-size="14.00">NotFoundComponent</text>
</g>
<!-- NotFoundComponent&#45;&gt;AppModule -->
<g id="edge4" class="edge">
<title>NotFoundComponent&#45;&gt;AppModule</title>
<path fill="none" stroke="black" d="M93,-161.05C93,-183.82 93,-219.8 93,-219.8 93,-219.8 443.12,-219.8 443.12,-219.8"/>
<polygon fill="black" stroke="black" points="443.12,-223.3 453.12,-219.8 443.12,-216.3 443.12,-223.3"/>
</g>
<!-- AppComponent  -->
<g id="node9" class="node">
<title>AppComponent </title>
<polygon fill="#80b1d3" stroke="black" points="549.44,-296.8 440.56,-296.8 440.56,-260.8 549.44,-260.8 549.44,-296.8"/>
<text text-anchor="middle" x="495" y="-274.6" font-family="Times,serif" font-size="14.00">AppComponent </text>
</g>
<!-- AppModule&#45;&gt;AppComponent  -->
<g id="edge8" class="edge">
<title>AppModule&#45;&gt;AppComponent </title>
<path fill="none" stroke="black" stroke-dasharray="1,5" d="M495,-229.02C495,-229.02 495,-250.53 495,-250.53"/>
<polygon fill="black" stroke="black" points="491.5,-250.53 495,-260.53 498.5,-250.53 491.5,-250.53"/>
</g>
<!-- AppRoutingModule -->
<g id="node6" class="node">
<title>AppRoutingModule</title>
<polygon fill="#8dd3c7" stroke="black" points="805.28,-160.8 802.28,-164.8 781.28,-164.8 778.28,-160.8 676.72,-160.8 676.72,-124.8 805.28,-124.8 805.28,-160.8"/>
<text text-anchor="middle" x="741" y="-138.6" font-family="Times,serif" font-size="14.00">AppRoutingModule</text>
</g>
<!-- AppRoutingModule&#45;&gt;AppModule -->
<g id="edge5" class="edge">
<title>AppRoutingModule&#45;&gt;AppModule</title>
<path fill="none" stroke="black" d="M741,-160.97C741,-182.3 741,-214.8 741,-214.8 741,-214.8 546.73,-214.8 546.73,-214.8"/>
<polygon fill="black" stroke="black" points="546.73,-211.3 536.73,-214.8 546.73,-218.3 546.73,-211.3"/>
</g>
<!-- CoreModule -->
<g id="node7" class="node">
<title>CoreModule</title>
<polygon fill="#8dd3c7" stroke="black" points="658.27,-160.8 655.27,-164.8 634.27,-164.8 631.27,-160.8 571.73,-160.8 571.73,-124.8 658.27,-124.8 658.27,-160.8"/>
<text text-anchor="middle" x="615" y="-138.6" font-family="Times,serif" font-size="14.00">CoreModule</text>
</g>
<!-- CoreModule&#45;&gt;AppModule -->
<g id="edge6" class="edge">
<title>CoreModule&#45;&gt;AppModule</title>
<path fill="none" stroke="black" d="M615,-160.91C615,-180.14 615,-207.8 615,-207.8 615,-207.8 546.97,-207.8 546.97,-207.8"/>
<polygon fill="black" stroke="black" points="546.97,-204.3 536.97,-207.8 546.97,-211.3 546.97,-204.3"/>
</g>
<!-- DashbordModule -->
<g id="node8" class="node">
<title>DashbordModule</title>
<polygon fill="#8dd3c7" stroke="black" points="936.99,-160.8 933.99,-164.8 912.99,-164.8 909.99,-160.8 823.01,-160.8 823.01,-124.8 936.99,-124.8 936.99,-160.8"/>
<text text-anchor="middle" x="880" y="-138.6" font-family="Times,serif" font-size="14.00">DashbordModule</text>
</g>
<!-- DashbordModule&#45;&gt;AppModule -->
<g id="edge7" class="edge">
<title>DashbordModule&#45;&gt;AppModule</title>
<path fill="none" stroke="black" d="M861,-161.12C861,-184.46 861,-221.8 861,-221.8 861,-221.8 546.99,-221.8 546.99,-221.8"/>
<polygon fill="black" stroke="black" points="546.99,-218.3 536.99,-221.8 546.99,-225.3 546.99,-218.3"/>
</g>
<!-- BarDashboardOlympicComponent  -->
<g id="node13" class="node">
<title>BarDashboardOlympicComponent </title>
<polygon fill="#fb8072" stroke="black" points="1422.19,-228.8 1207.81,-228.8 1207.81,-192.8 1422.19,-192.8 1422.19,-228.8"/>
<text text-anchor="middle" x="1315" y="-206.6" font-family="Times,serif" font-size="14.00">BarDashboardOlympicComponent </text>
</g>
<!-- DashbordModule&#45;&gt;BarDashboardOlympicComponent  -->
<g id="edge12" class="edge">
<title>DashbordModule&#45;&gt;BarDashboardOlympicComponent </title>
<path fill="none" stroke="black" stroke-dasharray="5,2" d="M937.32,-151.8C1055.44,-151.8 1315,-151.8 1315,-151.8 1315,-151.8 1315,-182.78 1315,-182.78"/>
<polygon fill="black" stroke="black" points="1311.5,-182.78 1315,-192.78 1318.5,-182.78 1311.5,-182.78"/>
</g>
<!-- PieDashboardOlympicComponent  -->
<g id="node14" class="node">
<title>PieDashboardOlympicComponent </title>
<polygon fill="#fb8072" stroke="black" points="1189.36,-228.8 976.64,-228.8 976.64,-192.8 1189.36,-192.8 1189.36,-228.8"/>
<text text-anchor="middle" x="1083" y="-206.6" font-family="Times,serif" font-size="14.00">PieDashboardOlympicComponent </text>
</g>
<!-- DashbordModule&#45;&gt;PieDashboardOlympicComponent  -->
<g id="edge13" class="edge">
<title>DashbordModule&#45;&gt;PieDashboardOlympicComponent </title>
<path fill="none" stroke="black" stroke-dasharray="5,2" d="M899,-160.83C899,-177.86 899,-200.8 899,-200.8 899,-200.8 966.76,-200.8 966.76,-200.8"/>
<polygon fill="black" stroke="black" points="966.76,-204.3 976.76,-200.8 966.76,-197.3 966.76,-204.3"/>
</g>
<!-- ErrorInterceptorService -->
<g id="node10" class="node">
<title>ErrorInterceptorService</title>
<ellipse fill="#fdb462" stroke="black" cx="615" cy="-66.8" rx="102.95" ry="18"/>
<text text-anchor="middle" x="615" y="-62.6" font-family="Times,serif" font-size="14.00">ErrorInterceptorService</text>
</g>
<!-- ErrorInterceptorService&#45;&gt;CoreModule -->
<g id="edge9" class="edge">
<title>ErrorInterceptorService&#45;&gt;CoreModule</title>
<path fill="none" stroke="black" d="M615,-84.81C615,-84.81 615,-114.65 615,-114.65"/>
<polygon fill="black" stroke="black" points="611.5,-114.65 615,-124.65 618.5,-114.65 611.5,-114.65"/>
</g>
<!-- BarDashboardOlympicComponent -->
<g id="node11" class="node">
<title>BarDashboardOlympicComponent</title>
<polygon fill="#ffffb3" stroke="black" points="1883.69,-228.8 1672.31,-228.8 1672.31,-192.8 1883.69,-192.8 1883.69,-228.8"/>
<text text-anchor="middle" x="1778" y="-206.6" font-family="Times,serif" font-size="14.00">BarDashboardOlympicComponent</text>
</g>
<!-- BarDashboardOlympicComponent&#45;&gt;DashbordModule -->
<g id="edge10" class="edge">
<title>BarDashboardOlympicComponent&#45;&gt;DashbordModule</title>
<path fill="none" stroke="black" d="M1778,-192.55C1778,-169.78 1778,-133.8 1778,-133.8 1778,-133.8 947.2,-133.8 947.2,-133.8"/>
<polygon fill="black" stroke="black" points="947.2,-130.3 937.2,-133.8 947.2,-137.3 947.2,-130.3"/>
</g>
<!-- PieDashboardOlympicComponent -->
<g id="node12" class="node">
<title>PieDashboardOlympicComponent</title>
<polygon fill="#ffffb3" stroke="black" points="1654.36,-228.8 1445.64,-228.8 1445.64,-192.8 1654.36,-192.8 1654.36,-228.8"/>
<text text-anchor="middle" x="1550" y="-206.6" font-family="Times,serif" font-size="14.00">PieDashboardOlympicComponent</text>
</g>
<!-- PieDashboardOlympicComponent&#45;&gt;DashbordModule -->
<g id="edge11" class="edge">
<title>PieDashboardOlympicComponent&#45;&gt;DashbordModule</title>
<path fill="none" stroke="black" d="M1550,-192.58C1550,-172.43 1550,-142.8 1550,-142.8 1550,-142.8 947.12,-142.8 947.12,-142.8"/>
<polygon fill="black" stroke="black" points="947.12,-139.3 937.12,-142.8 947.12,-146.3 947.12,-139.3"/>
</g>
</g>
</svg>
